<svg width="24" height="28" viewBox="0 0 24 28" fill="none" xmlns="http://www.w3.org/2000/svg">
<path d="M19.8175 27.7617H4.17207C3.26391 27.7606 2.39325 27.3994 1.75108 26.7572C1.10891 26.115 0.747667 25.2444 0.746582 24.3362V3.70674C0.747667 2.79858 1.10891 1.92792 1.75108 1.28575C2.39325 0.643583 3.26391 0.282335 4.17207 0.28125H14.4328C14.7046 0.281308 14.9652 0.389245 15.1574 0.581348L22.9422 8.36611C23.0375 8.46132 23.1131 8.57438 23.1648 8.69883C23.2164 8.82328 23.2429 8.95668 23.243 9.09141V24.3355C23.2421 25.2438 22.8809 26.1147 22.2387 26.757C21.5965 27.3993 20.7258 27.7606 19.8175 27.7617ZM4.17207 2.33203C3.80759 2.33239 3.45813 2.47734 3.20041 2.73507C2.94268 2.9928 2.79773 3.34225 2.79736 3.70674V24.3362C2.79773 24.7007 2.94268 25.0502 3.20041 25.3079C3.45813 25.5656 3.80759 25.7106 4.17207 25.7109H19.8175C20.182 25.7106 20.5314 25.5656 20.7891 25.3079C21.0469 25.0502 21.1918 24.7007 21.1922 24.3362V9.51592L14.0076 2.33203H4.17207Z" fill="white"/>
</svg>
