<?xml version="1.0" standalone="no"?>
<!DOCTYPE svg PUBLIC "-//W3C//DTD SVG 20010904//EN"
 "http://www.w3.org/TR/2001/REC-SVG-20010904/DTD/svg10.dtd">
<svg version="1.0" xmlns="http://www.w3.org/2000/svg"
 width="848.000000pt" height="848.000000pt" viewBox="0 0 848.000000 848.000000"
 preserveAspectRatio="xMidYMid meet">
<metadata>
Created by potrace 1.11, written by Peter Selinger 2001-2013
</metadata>
<g transform="translate(0.000000,848.000000) scale(0.100000,-0.100000)"
fill="#000000" stroke="none">
<path d="M3989 7676 c-2 -2 -42 -7 -89 -10 -85 -6 -125 -10 -210 -22 -25 -3
-61 -8 -80 -10 -72 -9 -227 -39 -335 -64 -27 -6 -57 -13 -65 -15 -78 -17 -346
-98 -397 -121 -17 -8 -34 -14 -37 -14 -37 0 -557 -237 -571 -260 -4 -6 -11 -8
-16 -5 -5 4 -9 1 -9 -4 0 -6 -5 -11 -11 -11 -6 0 -30 -13 -53 -28 -22 -15 -48
-31 -57 -34 -28 -11 -324 -211 -332 -225 -4 -7 -14 -13 -22 -13 -7 0 -15 -3
-17 -7 -1 -5 -46 -42 -98 -84 -52 -42 -113 -92 -135 -110 -63 -53 -375 -368
-430 -434 -28 -33 -59 -71 -70 -84 -11 -13 -27 -32 -35 -41 -8 -9 -19 -24 -25
-32 -5 -9 -36 -49 -67 -91 -56 -74 -207 -298 -221 -327 -4 -8 -17 -31 -29 -50
-117 -191 -241 -460 -336 -725 -42 -119 -58 -167 -78 -240 -2 -5 -18 -71 -38
-145 -31 -121 -38 -156 -50 -225 -2 -11 -8 -47 -15 -80 -11 -63 -18 -108 -27
-190 -2 -27 -7 -60 -9 -72 -26 -120 -26 -789 -1 -920 2 -10 7 -47 11 -83 4
-36 9 -74 11 -85 2 -10 6 -35 9 -55 6 -38 12 -70 20 -110 3 -14 7 -36 10 -50
3 -14 7 -36 10 -50 3 -14 7 -35 10 -48 2 -13 7 -32 10 -42 3 -10 7 -27 9 -37
14 -67 111 -383 135 -438 5 -11 21 -51 36 -90 32 -84 45 -114 133 -305 9 -19
29 -56 44 -83 15 -26 25 -47 22 -47 -2 0 7 -17 21 -37 14 -21 25 -41 25 -45 0
-8 119 -202 172 -280 63 -94 144 -144 249 -155 79 -8 131 7 294 86 77 38 228
111 335 163 107 53 202 98 210 102 85 38 156 116 185 201 17 52 26 163 13 171
-5 3 -8 12 -8 21 0 51 -117 203 -156 203 -8 0 -14 5 -14 12 0 6 -3 8 -6 5 -4
-3 -14 -2 -24 3 -24 13 -78 22 -127 21 -61 0 -136 -30 -348 -135 -174 -86
-191 -93 -204 -78 -39 49 -241 498 -256 572 -2 8 -8 29 -15 45 -14 36 -81 272
-85 300 -1 11 -3 20 -5 20 -1 0 -3 9 -4 20 -2 11 -6 34 -10 50 -10 45 -16 76
-22 115 -3 19 -8 49 -10 65 -10 56 -15 90 -18 125 -26 270 -27 579 -2 805 9
76 17 141 21 155 2 8 7 35 10 60 4 25 13 77 21 115 9 39 17 78 19 87 8 36 56
215 72 263 36 113 68 190 79 188 5 -1 90 -41 189 -88 327 -158 323 -157 395
-157 117 -1 174 20 249 92 61 59 94 136 96 224 1 39 0 76 -4 81 -3 6 -6 15 -7
21 -5 34 -47 104 -84 141 -42 42 -69 57 -375 203 -93 45 -172 83 -174 85 -4 4
128 203 163 246 11 14 28 36 36 49 8 12 20 28 25 34 6 6 41 49 79 95 38 46 76
92 85 101 152 160 247 252 346 335 39 32 72 61 75 64 3 3 27 22 53 41 27 19
60 45 75 56 56 44 241 164 346 224 97 56 325 170 351 176 6 2 44 17 85 34 141
59 382 135 524 166 42 9 170 34 200 39 17 3 42 8 56 10 35 7 96 14 162 20 l56
5 1 -267 c1 -148 4 -281 7 -298 13 -75 96 -190 154 -214 14 -6 32 -15 40 -20
86 -49 240 -29 337 45 47 36 100 120 113 179 7 29 11 158 11 313 l0 264 67 -7
c37 -3 92 -10 122 -15 30 -5 73 -12 95 -16 22 -3 49 -8 60 -9 11 -2 20 -4 20
-5 0 -1 11 -3 25 -5 36 -5 221 -52 305 -77 39 -12 75 -23 80 -24 30 -7 176
-62 293 -111 115 -48 141 -55 200 -55 78 -1 102 4 157 32 200 103 242 370 84
529 -54 54 -218 130 -444 205 -44 15 -87 30 -95 33 -8 4 -19 8 -25 8 -5 1 -17
5 -25 8 -31 11 -156 47 -185 51 -16 3 -41 10 -55 15 -29 11 -100 26 -117 24
-7 0 -13 2 -13 6 0 3 -10 7 -22 7 -13 1 -61 8 -108 17 -127 23 -193 33 -285
42 -27 3 -68 7 -90 10 -47 6 -621 16 -626 11z"/>
<path d="M6968 6505 c-2 -2 -21 -5 -43 -8 -22 -3 -51 -9 -65 -13 -25 -7 -269
-164 -295 -190 -7 -8 -17 -14 -20 -14 -6 0 -69 -42 -110 -73 -33 -25 -229
-158 -245 -167 -10 -5 -25 -16 -32 -22 -8 -7 -21 -17 -31 -23 -27 -16 -292
-198 -297 -204 -3 -3 -13 -10 -22 -16 -42 -24 -203 -139 -206 -147 -2 -4 -7
-8 -12 -8 -5 0 -73 -45 -152 -100 -79 -55 -150 -104 -158 -110 -8 -6 -87 -60
-175 -122 -88 -61 -196 -136 -240 -166 -44 -30 -89 -63 -101 -74 -11 -10 -24
-18 -28 -18 -4 0 -13 -6 -20 -12 -8 -7 -22 -19 -32 -26 -42 -28 -160 -112
-171 -122 -7 -5 -15 -10 -18 -10 -3 0 -11 -5 -18 -11 -12 -10 -130 -95 -272
-196 -44 -31 -81 -60 -83 -65 -2 -4 -10 -8 -17 -8 -7 0 -15 -4 -17 -8 -1 -4
-43 -37 -93 -72 -49 -36 -94 -68 -100 -72 -29 -23 -85 -65 -110 -83 -15 -11
-35 -27 -44 -35 -9 -8 -35 -28 -56 -45 -73 -54 -89 -69 -161 -141 -39 -39 -80
-86 -90 -103 -10 -17 -22 -31 -26 -31 -4 0 -8 -6 -8 -13 0 -7 -11 -28 -25 -47
-13 -18 -22 -37 -19 -41 3 -5 0 -9 -5 -9 -6 0 -11 -5 -11 -11 0 -5 -9 -29 -20
-53 -37 -82 -73 -256 -73 -356 -1 -285 100 -530 299 -725 95 -93 91 -90 169
-137 107 -64 246 -120 335 -133 140 -22 288 -22 380 0 73 17 123 32 158 46 23
10 44 19 47 19 12 1 80 36 83 43 2 4 8 7 13 7 21 0 131 83 197 148 68 67 107
114 192 227 25 33 47 62 50 65 3 3 17 21 30 40 12 19 28 40 34 45 18 17 56 74
56 84 0 6 6 14 13 18 7 4 24 24 37 43 14 19 28 40 32 45 4 6 18 24 31 40 12
17 31 43 42 60 10 16 22 34 27 40 5 5 26 35 48 65 22 30 43 60 48 65 12 16
146 205 157 223 6 10 13 19 16 22 3 3 30 41 60 85 30 44 57 85 62 90 4 6 21
28 37 50 16 22 34 46 40 53 6 6 8 12 5 12 -3 0 -1 6 5 13 6 6 28 37 50 67 22
30 43 60 47 65 4 6 26 37 48 70 22 33 43 65 47 70 4 6 24 31 43 58 19 26 35
50 35 53 0 2 5 10 10 17 20 23 233 329 255 365 6 9 15 22 21 28 6 7 26 36 45
66 18 29 36 55 39 58 3 3 19 25 35 50 17 25 34 50 38 55 7 9 82 117 325 473
42 61 82 121 88 132 6 12 22 32 34 45 13 14 20 25 15 25 -5 0 -2 6 6 13 9 6
37 46 64 87 28 41 52 77 55 80 26 24 57 137 53 194 -3 52 -28 139 -47 165 -56
74 -141 134 -207 147 -47 8 -78 12 -81 9z m-1298 -1641 c0 -3 -13 -23 -28 -43
-16 -20 -60 -81 -97 -136 -38 -55 -75 -106 -82 -113 -7 -7 -13 -17 -13 -21 0
-7 -17 -31 -68 -96 -4 -5 -24 -35 -44 -65 -21 -30 -58 -84 -84 -120 -25 -36
-57 -83 -72 -105 -15 -22 -29 -42 -32 -45 -3 -3 -17 -21 -30 -40 -14 -19 -28
-39 -32 -45 -5 -5 -67 -92 -138 -193 -72 -101 -135 -189 -140 -195 -6 -7 -36
-48 -68 -92 -121 -170 -247 -328 -292 -367 -129 -111 -318 -102 -441 21 -76
76 -99 137 -93 246 4 98 5 105 15 105 4 0 9 10 13 23 3 13 15 34 27 48 11 13
24 29 27 34 6 9 87 78 127 108 94 71 133 100 148 112 9 8 21 15 26 15 5 0 11
4 13 8 2 4 84 66 183 137 99 71 182 132 185 136 3 3 10 8 15 10 6 2 105 71
220 153 116 83 251 178 300 213 50 34 95 67 102 73 7 5 16 10 22 10 5 0 11 4
13 8 2 4 39 33 83 63 44 29 82 57 83 62 2 4 10 7 18 7 8 0 14 4 14 8 0 4 23
21 50 37 28 16 50 33 50 37 0 4 5 8 10 8 6 0 10 -3 10 -6z"/>
<path d="M7717 5365 c-101 -26 -199 -122 -230 -225 -23 -77 -12 -181 29 -258
8 -15 14 -30 14 -34 0 -4 11 -31 24 -60 46 -104 135 -375 162 -501 12 -54 14
-63 20 -87 11 -46 22 -105 28 -145 4 -22 11 -65 16 -95 47 -271 45 -798 -4
-1055 -2 -11 -7 -40 -11 -65 -10 -60 -13 -79 -21 -115 -4 -16 -8 -39 -10 -50
-17 -113 -134 -476 -208 -640 -12 -27 -29 -66 -36 -85 -7 -19 -17 -40 -22 -47
-5 -6 -26 -47 -48 -90 -59 -122 -54 -118 -130 -82 -36 18 -101 49 -145 69 -44
21 -118 56 -165 78 -47 23 -101 44 -120 47 -90 17 -177 0 -251 -49 -100 -66
-150 -164 -145 -286 5 -143 77 -238 239 -314 141 -67 281 -133 402 -191 316
-152 281 -139 380 -139 78 -1 97 3 141 26 86 43 98 58 232 263 7 11 15 28 18
38 4 9 10 17 15 17 5 0 9 4 9 10 0 5 14 33 31 62 61 102 197 383 234 483 11
28 24 53 29 57 6 4 8 8 4 8 -4 0 2 24 13 53 75 184 182 587 213 792 7 51 17
119 21 145 9 64 16 134 20 189 2 33 5 64 8 68 7 12 0 587 -8 658 -4 33 -8 76
-10 95 -2 19 -4 35 -5 35 -1 0 -3 16 -4 35 -2 19 -6 53 -10 75 -4 22 -11 69
-17 105 -6 36 -15 83 -20 105 -6 22 -11 51 -13 65 -2 14 -6 34 -9 45 -3 11 -9
31 -11 45 -3 14 -13 52 -21 85 -18 68 -18 70 -40 145 -9 30 -17 60 -18 65 -2
6 -5 15 -8 20 -4 6 -16 42 -28 80 -39 121 -118 317 -158 392 -38 70 -113 132
-184 154 -53 16 -139 18 -192 4z"/>
</g>
</svg>
